<svg width="58" height="81" viewBox="0 0 58 81" fill="none" xmlns="http://www.w3.org/2000/svg">
<path d="M29 0C12.9835 0 0 12.0893 0 27.0003C0 31.7966 1.38437 36.2819 3.73878 40.1831C4.13027 40.8311 4.53917 41.468 4.98504 42.0825L29 81L53.015 42.0825C53.3847 41.5722 53.7044 41.0336 54.035 40.5L54.2612 40.1841C56.6134 36.2829 58 31.7966 58 27.0003C58 12.0882 45.0154 0 29 0ZM29 16.8753C35.0062 16.8753 39.8749 21.4083 39.8749 27.0003C39.8749 32.5924 35.0062 37.1253 29 37.1253C22.9938 37.1253 18.1251 32.5924 18.1251 27.0003C18.1251 21.4083 22.9938 16.8753 29 16.8753Z" fill="url(#paint0_linear_32_226)"/>
<defs>
<linearGradient id="paint0_linear_32_226" x1="29" y1="0" x2="29" y2="81" gradientUnits="userSpaceOnUse">
<stop stop-color="#F36969"/>
<stop offset="1" stop-color="#8D3D3D"/>
</linearGradient>
</defs>
</svg>
