<svg width="35" height="35" viewBox="0 0 35 35" fill="none" xmlns="http://www.w3.org/2000/svg">
<path fill-rule="evenodd" clip-rule="evenodd" d="M29.9006 5.08627C26.6105 1.8081 22.2348 0.00184254 17.5731 0C7.96762 0 0.149964 7.77969 0.14612 17.3422C0.144839 20.3989 0.947339 23.3827 2.47228 26.0127L0 35L9.23829 32.5883C11.7836 33.9699 14.6494 34.6981 17.5661 34.6993H17.5733C27.1777 34.6993 34.9961 26.9186 35 17.356C35.0019 12.7219 33.1909 8.36444 29.9006 5.08627ZM17.5733 31.7701H17.5673C14.9683 31.7691 12.4191 31.0742 10.1952 29.7608L9.66625 29.4484L4.1842 30.8796L5.64749 25.5602L5.30305 25.0148C3.85314 22.7197 3.08732 20.0669 3.08846 17.3433C3.09164 9.39532 9.58942 2.92917 17.579 2.92917C21.4478 2.93064 25.0845 4.43202 27.8193 7.15672C30.554 9.88142 32.0592 13.5032 32.0577 17.3549C32.0544 25.3035 25.5567 31.7701 17.5733 31.7701ZM25.5183 20.974C25.0828 20.7571 22.942 19.7087 22.5429 19.5641C22.1438 19.4195 21.8535 19.3472 21.5632 19.781C21.2729 20.2148 20.4384 21.1909 20.1844 21.4801C19.9304 21.7694 19.6764 21.8056 19.241 21.5886C18.8055 21.3717 17.4025 20.9141 15.7393 19.4377C14.4449 18.2887 13.5709 16.8695 13.3169 16.4357C13.0629 16.0019 13.2899 15.7673 13.5079 15.5513C13.7038 15.3571 13.9433 15.0452 14.1611 14.7921C14.3787 14.539 14.4513 14.3583 14.5964 14.0691C14.7416 13.7799 14.669 13.5268 14.5602 13.3099C14.4513 13.093 13.5805 10.96 13.2176 10.0923C12.8642 9.2473 12.5052 9.36163 12.2379 9.3484C11.9842 9.33583 11.6936 9.33314 11.4034 9.33314C11.1131 9.33314 10.6414 9.44162 10.2422 9.87542C9.84308 10.3093 8.71825 11.3577 8.71825 13.4906C8.71825 15.6236 10.2785 17.6842 10.4962 17.9734C10.7139 18.2627 13.5667 22.6398 17.9347 24.5169C18.9736 24.9634 19.7847 25.23 20.417 25.4298C21.4602 25.7596 22.4094 25.713 23.1597 25.6015C23.9963 25.4771 25.7359 24.5531 26.0988 23.5408C26.4617 22.5286 26.4617 21.6609 26.3528 21.4802C26.244 21.2994 25.9537 21.1909 25.5183 20.974Z" fill="white"/>
</svg>
